<svg width="900" height="360" viewBox="0 0 900 360" fill="none" xmlns="http://www.w3.org/2000/svg" role="img" aria-label="Manhã clara em pixel art com folhas caindo ao vento.">
  <title>folhas no dia</title>
  <desc>Manhã clara em pixel art com folhas caindo ao vento.</desc>

  <style>
    .tiny { font: 14px monospace; fill: #55616d; letter-spacing: 1px; }
    .blink { animation: blink 1.7s steps(1) infinite; }
    @keyframes blink { 50% { opacity: 0; } }
  </style>

  <rect width="900" height="360" rx="18" fill="#f6f1e7"/>
  <rect x="18" y="18" width="864" height="324" rx="12" fill="#eee5d8" stroke="#d8caba" stroke-width="2"/>

  
  <g opacity=".76">
    <rect x="702" y="52" width="12" height="12" fill="#d9ba74"/>
    <rect x="714" y="52" width="12" height="12" fill="#e3c783"/>
    <rect x="726" y="52" width="12" height="12" fill="#d9ba74"/>
    <rect x="690" y="64" width="12" height="12" fill="#d9ba74"/>
    <rect x="702" y="64" width="12" height="12" fill="#e9d297"/>
    <rect x="714" y="64" width="12" height="12" fill="#ead79f"/>
    <rect x="726" y="64" width="12" height="12" fill="#e3c783"/>
    <rect x="738" y="64" width="12" height="12" fill="#cfae68"/>
    <rect x="702" y="76" width="12" height="12" fill="#d9ba74"/>
    <rect x="714" y="76" width="12" height="12" fill="#e3c783"/>
    <rect x="726" y="76" width="12" height="12" fill="#cfae68"/>
  </g>
  <g opacity=".78">
    <rect x="102" y="72" width="48" height="12" fill="#d6d0c4"/>
    <rect x="126" y="60" width="48" height="12" fill="#d6d0c4"/>
    <rect x="150" y="72" width="60" height="12" fill="#d6d0c4"/>
    <rect x="520" y="104" width="42" height="12" fill="#d9d3c8"/>
    <rect x="544" y="92" width="54" height="12" fill="#d9d3c8"/>
    <rect x="598" y="104" width="48" height="12" fill="#d9d3c8"/>
  </g>

  <g transform="translate(105 132)">
    <rect width="420" height="126" rx="10" fill="#fbf7ef" stroke="#d8caba" stroke-width="2"/>
    <rect y="0" width="420" height="28" rx="10" fill="#ded2c2"/>
    <circle cx="20" cy="14" r="4" fill="#b9825f"/>
    <circle cx="38" cy="14" r="4" fill="#b79c5a"/>
    <circle cx="56" cy="14" r="4" fill="#789567"/>
    <text x="24" y="62" class="tiny">root@memory:~# psql</text>
    <text x="24" y="90" class="tiny">O sutil acontece...<tspan class="blink">_</tspan></text>
  </g>

  <g opacity=".75">
    <rect x="18" y="322" width="864" height="20" fill="#e3d7c5"/>
    <rect x="64" y="314" width="58" height="8" fill="#d8caba"/>
    <rect x="138" y="306" width="30" height="8" fill="#d8caba"/>
    <rect x="612" y="314" width="92" height="8" fill="#d8caba"/>
    <rect x="742" y="306" width="42" height="8" fill="#d8caba"/>
  </g>

  <defs>
    <g id="leaf-a">
      <rect x="4" y="0" width="4" height="4" fill="#d28b41"/>
      <rect x="0" y="4" width="4" height="4" fill="#a45f32"/>
      <rect x="4" y="4" width="4" height="4" fill="#e0a14e"/>
      <rect x="8" y="4" width="4" height="4" fill="#b66f36"/>
      <rect x="4" y="8" width="4" height="4" fill="#85512e"/>
    </g>
    <g id="leaf-b">
      <rect x="4" y="0" width="4" height="4" fill="#8e9a4e"/>
      <rect x="0" y="4" width="4" height="4" fill="#64743f"/>
      <rect x="4" y="4" width="4" height="4" fill="#a8ad60"/>
      <rect x="8" y="4" width="4" height="4" fill="#7b8748"/>
      <rect x="4" y="8" width="4" height="4" fill="#536037"/>
    </g>
    <g id="leaf-c">
      <rect x="4" y="0" width="4" height="4" fill="#b6603f"/>
      <rect x="0" y="4" width="4" height="4" fill="#864133"/>
      <rect x="4" y="4" width="4" height="4" fill="#c9744a"/>
      <rect x="8" y="4" width="4" height="4" fill="#9a4b38"/>
      <rect x="4" y="8" width="4" height="4" fill="#684034"/>
    </g>
  </defs>

  <g opacity=".88">
    <use href="#leaf-a">
      <animateMotion dur="15s" repeatCount="indefinite" begin="-1s" path="M120,-30 C70,58 178,115 116,198 C82,244 128,294 100,380"/>
      <animateTransform attributeName="transform" type="rotate" from="0" to="360" dur="4s" repeatCount="indefinite" additive="sum"/>
    </use>
    <use href="#leaf-b">
      <animateMotion dur="18s" repeatCount="indefinite" begin="-6s" path="M245,-40 C296,52 190,104 252,170 C314,235 220,278 258,382"/>
      <animateTransform attributeName="transform" type="rotate" from="40" to="-320" dur="5s" repeatCount="indefinite" additive="sum"/>
    </use>
    <use href="#leaf-c">
      <animateMotion dur="17s" repeatCount="indefinite" begin="-9s" path="M385,-35 C330,42 440,104 372,184 C324,240 416,296 360,380"/>
      <animateTransform attributeName="transform" type="rotate" from="0" to="360" dur="6s" repeatCount="indefinite" additive="sum"/>
    </use>
    <use href="#leaf-a">
      <animateMotion dur="20s" repeatCount="indefinite" begin="-12s" path="M520,-30 C590,40 480,102 548,166 C620,236 508,284 560,382"/>
      <animateTransform attributeName="transform" type="rotate" from="-20" to="340" dur="5.2s" repeatCount="indefinite" additive="sum"/>
    </use>
    <use href="#leaf-b">
      <animateMotion dur="16s" repeatCount="indefinite" begin="-4s" path="M680,-30 C620,54 730,114 664,190 C606,254 690,298 646,380"/>
      <animateTransform attributeName="transform" type="rotate" from="0" to="-360" dur="4.8s" repeatCount="indefinite" additive="sum"/>
    </use>
    <use href="#leaf-c">
      <animateMotion dur="21s" repeatCount="indefinite" begin="-14s" path="M810,-35 C870,55 760,122 828,202 C892,276 790,310 842,382"/>
      <animateTransform attributeName="transform" type="rotate" from="30" to="390" dur="6.4s" repeatCount="indefinite" additive="sum"/>
    </use>
  </g>

  <g opacity=".24" stroke="#9a8f82" stroke-width="2">
    <path d="M610 156 H742" stroke-dasharray="22 18">
      <animate attributeName="stroke-dashoffset" from="0" to="-80" dur="5s" repeatCount="indefinite"/>
    </path>
    <path d="M590 196 H850" stroke-dasharray="30 22">
      <animate attributeName="stroke-dashoffset" from="0" to="-104" dur="7s" repeatCount="indefinite"/>
    </path>
    <path d="M60 284 H260" stroke-dasharray="18 18">
      <animate attributeName="stroke-dashoffset" from="0" to="-72" dur="6s" repeatCount="indefinite"/>
    </path>
  </g>
</svg>
